<?xml version="1.0" encoding="UTF-8"?>
<svg viewBox="0 0 679.6311 355.5228" xmlns="http://www.w3.org/2000/svg">
 <defs>
  <radialGradient id="a" cx="589.27" cy="39.882" r="238.93" gradientTransform="matrix(-1.4086 .27871 -.10488 -.53007 1208.6 72.237)" gradientUnits="userSpaceOnUse">
   <stop stop-color="#8a0" offset="0"/>
   <stop stop-color="#8a0" stop-opacity="0" offset="1"/>
  </radialGradient>
 </defs>
 <g transform="translate(-13.922 -14.466)">
  <path d="m13.922 14.466h679.63v355.52h-679.63z" fill="url(#a)"/>
  <path d="m509.99 158.92c-3.5191 13.674-3.4409 27.896-4.5092 41.887-0.59547 10.317-1.3246 20.641-1.1789 30.982-2.8092 4.4654-8.102 6.4417-12.891 8.0354-4.1819 1.9537-4.9866-2.3849-3.5114-5.3426 2.1747-10.599 2.7925-21.471 2.713-32.272-0.21351-10.572-1.7886-21.235-5.7876-31.075 0.56303-4.2184 4.9025-6.2479 8.0681-8.3802 4.7299-2.6437 9.9784-5.4357 15.553-4.942 0.62467 0.15924 1.2464 0.4998 1.5439 1.1065z" fill="#fff" stroke="#000" stroke-linecap="round" stroke-linejoin="round" stroke-width="3"/>
  <path d="m376.23 143.63c-2.5038 21.446-0.98898 43.2-4.6205 64.544-3.7956 30.92-9.3371 61.586-14.774 92.249-3.3652 5.9399-10.982 11.011-17.917 8.6406 15.663-40.789 21.229-88.665 17.576-128.51-0.7576-8.1449-3.0269-16.13-4.8281-23.993 1.1575-7.9285 10.038-10.273 16.367-12.841 2.4596-1.2008 5.9352-2.2944 8.1971-0.0869z" fill="#fff" stroke="#000" stroke-linecap="round" stroke-linejoin="round" stroke-width="3"/>
  <path d="m398.3 152.34c-6.7173 0.10757-23.698 13.695-20.531 17.906 10.354-2.5887 21.806-2.8262 32.281-0.84375 2.5508 0.48273 5.0129 1.2443 7.5312 1.875 4.4066 1.9846 10.489 4.4171 11.219 10.094 0.87087 6.7745-5.7353 13.334-9.4062 17.875-10.271 8.9984-9.7454 9.3641-22.375 16.594-1.0132 0.58-2.2511 0.61998-3.3438 1.0312-4.6096 1.735-9.1005 3.7812-13.75 5.4062-5.463 1.9094-7.9748 2.6649-10.656 3.2188-2.9721-0.9097-5.793-1.6133-6.6562-1.3125-0.15891 0.0554-0.31002 0.13152-0.46875 0.1875 0.68359 0.22252 0.67307 0.96529-0.84375 2.5-0.18645 0.0306-0.27431 0.0303-0.46875 0.0625-1.1858-0.13605-2.4835 0.10389-3.5625-0.40625-0.15411-0.0729-0.21965-0.15484-0.25-0.25-7.5478 3.0108-14.84 6.6873-21.75 10.938-1.1844 0.72855-1.3879 3.0372-0.5625 4.1562 1.7703 2.4002 7.7728-4.8711 9.7188-3.875-0.50303 0.44702-0.99011 0.92475-1.4375 1.4375-1.8137 2.0787 5.4926-0.7104 8.25-0.625 3.5735 0.11064 7.1039 0.784 10.656 1.1875 22.035 5.3148 42.386 15.904 61.344 28.125 2.9715 1.9155 5.8078 3.9936 8.7188 6 2.7229 2.0749 6.1681 4.3517 8.6562 7.0625-0.20165 0.69505-0.19257 1.314 0.125 1.8438l0.875-0.53125c0.18771 0.61402 0.0892 1.6644 0.53125 1.4062 8.0586-4.706 15.509-10.445 23.25-15.656-0.94581-1.5778-3.8656-1.3162-7.375-0.0625-3.7082-0.99327-7.3395-2.6914-10.75-4.0312-10.317-4.7388-12.097-5.3687-22.531-10.969-15.494-8.3153-30.454-17.783-46.875-24.25-0.0511-0.0174-0.77684-0.29606-1.25-0.46875 2.3645-0.93458 4.7198-1.8793 7-3 10.254-5.0399 29.282-15.34 40.031-22.906 4.3779-3.0816 8.4168-6.5966 12.625-9.9062 5.0121-5.2139 16.079-14.202 14-23.156-1.3898-5.9868-10.458-8.0349-15.031-9.875-2.6268-0.63094-5.2299-1.3573-7.875-1.9062-8.8783-1.8426-17.951-2.6705-26.906-4.0312-0.45241-0.60154-1.1966-0.85912-2.1562-0.84375zm-41.281 73.938c1.6945-0.67592 3.4072-1.3004 5.125-1.9062-1.3717-0.44652-5.3902 1.075-5.125 1.9062z" fill="#fff" stroke="#000" stroke-linecap="round" stroke-linejoin="round" stroke-width="3"/>
  <path d="m549.78 212.78c-7.8402-3.2372-17.357-3.0982-24.986 0.74165 7.0046-3.8863 14.626-7.5686 20.887-12.163-5.3659 2.5939-10.422 8.6228-7.0588 14.783 3.5332 8.6574 9.9904 15.728 15.344 23.303 9.1369 11.667 18.338 23.325 26.673 35.581 4.5298 6.9563 6.9337 16.875 1.0942 23.817-5.2917 6.0631-9.9529 6.7427-19.795 13.115-5.1538 4.2128-11.434 6.4593-18.115 6.1724-11.359 0.33153-19.218-9.4094-25.861-17.301-9.7508-11.917-20.424-23.128-32.764-32.405-9.2373-7.5549-19.227-14.283-30.197-19.064 0.58723-5.6841 7.5192-8.5855 12.238-10.851 7.0034-2.0709 10.134 7.8 15.751 10.647 18.594 15.932 38.853 29.758 58.053 44.928 7.6805 5.6296 17.173 11.601 27.087 8.5824 3.8359-0.61481-13.035 6.3154-15.136 7.8438 7.8032-2.9004 12.56-8.939 10.685-17.23-2.9892-15.735-14.921-27.492-25.089-39.076-7.836-8.9717-17.907-16.37-23.307-27.223-4.0882-7.2288 2.4284-14.307 8.3633-17.77 7.1328-4.5948 14.939-8.1869 22.74-11.377 8.4663-2.0722 17.363-1.322 26.008-1.0451 2.8405 5.7675-8.0475 11.382-12.819 14.454-2.8581 1.1901-6.906 3.9086-9.7946 1.5368z" fill="#ed2939" stroke="#000" stroke-linecap="round" stroke-linejoin="round" stroke-width="3"/>
  <g transform="translate(5.017 2.5504)" fill="#002395" stroke="#000" stroke-linecap="round" stroke-linejoin="round" stroke-width="3">
   <path d="m178.65 140.66c-0.28213 1.0612-0.61232 2.1107-0.8464 3.1835-0.50717 2.3245-2.5084 13.453-2.7103 14.525-2.6218 13.914-5.4222 27.792-8.0619 41.703-3.5765 17.088-7.1285 34.188-11.251 51.156-4.0242 15.771-6.6525 25.941-9.7176 40.003-0.92379 7.8133-3.3935 14.376-2.7461 21.345 2.4425 5.0018-21.136 16.516-23.579 11.514 2.6758-9.3787 7.8115-18.376 10.558-25.419 12.362-29.426 20.862-62.925 24.151-92.422 0.97609-17.728 4.8896-36.875-1.2578-52.614-2.752-5.4011 22.709-18.374 25.461-12.973z"/>
   <path d="m196.12 152.79c6.9651-0.51114 10.908 6.2936 14.853 10.893 9.1364 12.231 17.06 26.109 19.351 41.402 0.99644 6.2472-1.0423 12.544-4.8288 17.509-3.1161 4.8214-6.3627 9.5564-9.5241 14.348-5.9471 4.8596-14.053 5.4063-21.307 3.8815-12.735-2.3061-25.16-6.284-38.074-7.6588-7.1817-0.7032-14.694-1.4375-21.691 0.72262-4.4643 3.0243-1.8131-5.9182-0.49116-8.0112 1.8468-4.0077 5.3314-10.942 10.425-6.8086 13.416 3.131 27.178 4.5181 40.839 6.1704 9.2553 0.6949 18.653 2.7208 27.905 1.038 2.9386 0.0593 7.7505-4.1962 8.341-3.7679-1.2444 2.6187-4.9054 8.9313-4.5307 9.5923 6.4517-9.0514 5.3046-21.151 1.4896-30.998-4.4577-12.58-13.084-24.469-25.448-30.169-3.424-1.2705-9.3775 1.2364-7.0604-4.7477 1.549-4.9133 3.8076-10.16 8.0984-13.261l0.87578-0.27591 0.77687 0.14026 2e-5 1e-5z"/>
  </g>
  <g transform="translate(-2.6904 25.558)" fill="#fff" stroke="#000">
   <path d="m295.53 227.31h12.386l18.422 38.254-11.994 0.0784z"/>
   <path d="m232.14 263.04 0.88688 2.8269h9.3677l19.505-38.479-12.699 0.15678z"/>
   <path d="m261.27 227.7-9.0932 18.5 1.7246 1.7246 8.3093-7.1335 10.739-3.1356 11.68 0.15678 10.269 3.9195 7.9958 5.1737 1.3326-3.0572-8.0742-16.227z"/>
   <path d="m248.33 215.81 55.652 0.22172v6.5408l-55.763-0.44344z"/>
   <path d="m290.68 216.03 14.079 0.33258-12.86-42.459-7.4276 1.2195z"/>
   <path d="m263.63 175.79-10.753 39.91 14.412 0.33258 3.6584-40.907z"/>
   <path d="m269.28 173.13 0.22172 9.7557 20.287 0.33258-0.22172-10.643z"/>
   <path d="m266.29 169.36h7.8711l2.9932-29.821 0.88688-23.946 2.6606 34.367 0.66517 9.3123 1.9955 10.088h7.095l0.88688-8.758-3.1041-16.851-2.6606-35.919-1.9955-43.901-0.66516-28.824-0.38467-7.0644-4.3799-1.0178-4.4624 1.6842-0.0852 6.1763c0.1077 16.415-0.76472 32.819-1.3303 49.222l-1.9955 34.588-1.7738 23.059-2.6606 19.068-1.3303 2.8824z"/>
   <g transform="translate(-189.39 -400.54)" stroke-linecap="round" stroke-linejoin="round" stroke-width="2">
    <path d="m452.66 581.69c1.4264 3.6225 2.7893 0.55211 0 0zm1.3415 0c1.5766 3.3835 2.4437 0.51791 0 0zm1.3503 0c1.2946 3.0631 2.7824 0.65543 0 0zm1.3415 0c1.2817 3.0795 2.7804 0.61897 0 0zm1.3503 0c1.3682 3.6256 2.8365 0.53424 0 0zm1.3503 0c1.2947 3.0631 2.7825 0.65545 0 0zm1.3503 9e-3c1.324 3.0706 2.7746 0.65373 0 0zm1.3503 0c1.3723 3.1163 2.7184 0.61971 0 0zm1.3415 0c1.3167 3.0976 2.7741 0.62433 0 0zm1.3503 0c1.2892 3.0824 2.7967 0.64037 0 0zm1.3503 0c1.9867 3.6602 2.302 0.48255 0 0zm1.3415 0c1.9116 3.6213 2.3661 0.5096 0 0zm1.3503 0c1.8621 3.5978 2.393 0.52547 0 0zm1.3415 0c1.819 3.5809 2.438 0.53393 0 0zm1.3503 0c1.8042 3.5771 2.4438 0.53883 0 0zm1.3503 0c1.8619 3.5977 2.3932 0.52553 0 0zm1.3415 0c1.9113 3.6212 2.3664 0.5097 0 0zm1.3503 0c1.9741 3.656 2.3055 0.48785 0 0zm1.3503 9e-3c1.7237 3.5245 2.4895 0.54776 0 0zm1.3503 0c1.7106 3.522 2.4941 0.55168 0 0zm1.3503 0c1.757 3.5321 2.4521 0.54637 0 0zm1.3415 0c1.7984 3.5479 2.4312 0.53615 0 0zm1.3503 0c0.59888 2.2268 3.363 1.0828 0 0zm1.3415 0 0.22366 0.1818-0.22366-0.1818zm-31.828 0.15782c1.2709 4.1167 2.4492 0.48687 0 0zm-0.28935 1.0609c-0.15972 2.169 2.6386-0.05 0 0zm-0.28058 1.0697c-0.37993 0.90952 1.1316-0.3994 0 0z"/>
    <path d="m451.86 581.69c-0.60361 0.26747 0.39405 0.13103 0 0zm1.1311 0c-3.9084 1.5388-0.295 2.3195 0 0zm1.3503 0c-2.3978 0.39877-0.83061 4.2162 0 0zm1.3503 0c-2.4265 0.39108-0.76982 4.185 0 0zm1.3415 0c-2.3978 0.39878-0.83052 4.2161 0 0zm1.3503 0c-2.2894 0.31252-0.92506 4.2969 0 0zm1.3415 0c-2.2634 0.10521-1.25 4.3175 0 0zm1.3415 9e-3c-4.6356 1.5585-0.30076 2.5424 0 0zm1.3503 0c-3.5093 1.3128-0.46917 2.5984 0 0zm1.3415 0c-4.6355 1.558-0.30083 2.5427 0 0zm1.3503 0c-4.6241 1.4896-0.31125 2.5826 0 0zm1.3415 0c-3.0114 1.1796-0.40074 2.4842 0 0zm1.3503 0c-4.6355 1.558-0.30083 2.5427 0 0zm1.3503 0c-3.5095 1.3127-0.46899 2.5982 0 0zm1.3415 0c-3.1335 1.9688-0.97372 2.432 0 0zm1.3503 0c-2.2256 0.1367-1.1322 4.1248 0 0zm1.3415 0c-3.807 2.4418-0.61897 2.197 0 0zm1.3503 0c-3.1218 1.937-0.97505 2.456 0 0zm1.3415 9e-3c-3.3246 2.0786-0.64603 2.2907 0 0zm1.3415 0c-3.538 2.3803-0.49088 2.0888 0 0zm1.3503 0c-3.1019 1.8747-0.98647 2.493 0 0zm1.3415 0c-3.1809 1.7699-0.7159 2.396 0 0zm1.3503 0c-3.427 1.2274-0.50345 2.6707 0 0zm1.3503 0c-3.8599 1.916-0.35834 2.3126 0 0zm1.2275 0.11398c-3.5864 2.255-0.62712 2.2259 0 0zm0.27181 1.0785c-3.5617 0.41181-0.16854 2.291 0 0zm0.26304 1.0785c-1.1293-0.35261 0.43171 0.87867 0 0z"/>
    <path d="m462.26 575.57c-15.945-0.86637-11.387 19.728-16.876 29.245-4.8065 6.5322-6.1049 24.753 6.4204 17.529 11.714-9.4105 0.88877-28.294 13.032-37.458 14.859-3.0879 12.226 17.683 12.936 26.987-0.63143 10.04 19.32 18.013 16.112 3.8419-5.6254-12.666-6.3395-27.375-12.397-39.562-5.5708-2.6928-20.814 15.073-19.228-0.58276zm-8.7768 0.55238c13.226-4.6004-1.9835 14.218-0.31958 0.97525l0.18802-0.57377 0.13156-0.40148zm28.715 0c6.1965 9.9245-16.009 1.6117-3.3185 2e-3l1.6593-2e-3 1.6593-2.5e-4zm-30.153 5.9097c11.262-3.4393 2.6063 7.778 0 0zm9.6449 0h12.302c-2.8736 3.408-9.6909 4.0701-12.302 0zm12.863 0c10.102-3.7255 4.8983 7.6224 0 0zm-23.139 2.5515c15.88 0.67391 3.3164 19.496 6.0787 28.394 0.58936 10.104-19.659 14.615-14.294 1.669 3.222-9.8802 5.9918-19.91 8.2152-30.063zm23.498 0c12.859-1.7051 12.608 13.92 15.102 22.559 7.2599 6.274 3.0261 21.536-7.2902 14.296-5.6615-10.382-4.4304-23.521-7.4177-34.998l-0.39389-1.8573z"/>
    <path d="m467.58 391.56c1.825 6.0946-0.93556 10.978 1e-3 1.9031l-1e-3 -1.9031z"/>
    <path d="m437.53 616.68c-4.7234 12.075 12.639 13.09 20.433 11.062h40.348c3.4756-10.93-10.365-5.0238-16.697-6.125h-43.865c-0.20423-1.6434 0.36748-3.3326-0.21875-4.9375zm0.21875 6.4375c20.062 0.0209 40.125-0.0416 60.187 0.0312-20.062-0.0222-40.125 0.0516-60.187-0.0312z"/>
    <path d="m467 637.3c-17.273-0.20904-33.364 15.746-32.111 33.216 0.53742-15.835 12.576-31.593 29.147-32.449 12.68-1.6664 26.057 5.1459 32.75 15.416 0.44469 3.4574 4.7947 18.085 2.9566 7.173-4.2203-13.769-18.222-24.177-32.742-23.356z"/>
    <path d="m503 667.21c0.19994 11.275 25.538-0.18634 8.6992-0.15174-2.897 0.0954-5.8036 0.50298-8.6992 0.15174z"/>
    <path d="m463.68 429.91c-1.5738 42.787-2.4439 85.694-7.8503 128.22-8.8895 6.8115 8.4925 21.782 8.4162 7.2641 2.7232-18.811 2.7712-37.854 3.5904-56.806 0.91948 21.3 0.90133 42.76 4.7262 63.806 15.62-1.4914 4.0639-20.408 5.0983-30.01-2.6913-36.318-4.505-72.707-5.5827-109.11-0.0287-4.639-5.2843-4.069-8.3982-3.367zm0.4121 0.42086c7.9728 0.43385-4.0889 9.6737 2e-3 0.11307l-1e-5 -6.5e-4 -2e-3 -0.11242h-3e-4zm7.4967 0c4.561 10.37-9.7363 0.44096 0 0zm-7.6896 7.2687c4.7394-3.7659 2.0029 5.2134 0 0zm4.1561 0c4.7246-3.7521 2.0377 5.2366 0 0zm-4.2087 2.0079c9.3517 10.396 0.43238 24.625 3.7616 36.601-0.0102 31.156-0.0132 62.455-4.424 93.365-13.811 5.7411-6.0522-16.582-5.3702-23.695 3.6875-35.309 4.4744-70.828 6.0326-106.27zm4.2087 0c9.7033 10.954 1.3878 26.013 5.3697 38.611 1.4078 31.298 2.8725 62.683 7.8004 93.665-16.015-1.2145-8.6721-21.563-11.518-32.088-2.5321-33.337-1.329-66.795-1.6525-100.19z"/>
    <path d="m437.43 616.24c19.848 1.5469 39.763 0.45836 59.642 0.66839-19.841-1.644-39.766-0.13986-59.642-0.66839z"/>
    <path d="m467.63 570.68-16.738 0.0351c7.0672 9.5584 23.699 5.2651 31.811 3.2212 1.9742-8.4008-11.574-0.83601-15.073-3.2563z"/>
    <path d="m484.52 571.35h-16.927"/>
    <path d="m451.15 569.21c7.524 2.9494 26.505 1.946 27.841 0.14727-9.2683-0.74042-18.563 0.16981-27.841-0.14727z"/>
    <path d="m467.6 391.55c3.6504 13.088-6.4568 27.6-4.6888 38.647 10.57 6.0788 15.694-11.597 6.5362-16.036-1.9953-7.386-0.53623-15.137-1.8474-22.611zm-0.3125 25c3.929 9.4291-9.0813 5.0613 0 0zm1.125 0.0312c9.1743 4.2409-4.189 8.6089 0 0z"/>
    <path d="m418 667.21c-2.5552 10.495 24.544 0.70906 8.5027-0.12518-2.834 0.0379-5.6687 0.32244-8.5027 0.12518z"/>
    <path d="m451.22 627.72c-6.0743 13.121-10.838 27.074-19.644 38.721-9.4029 7.5821-15.333-9.2686-5.8289-12.938 4.2374-9.9286 7.1829-24.077 19.726-26.192 1.9213-0.20203 3.8679-0.015 5.7472 0.40846zm-0.67514 0.84174h-12.188l-18.509 37.931 12.1-0.0789 18.597-37.852z"/>
    <path d="m451.15 571.35h16.927"/>
    <path d="m464 430.56c-1.3302 4.0617 1.1382 7.0193 0 0z"/>
    <path d="m467.85 634.45c-5.5251-2.5014-19.292 5.428-18.82 5.9515 13.425-8.7047 33.162-6.7573 43.88 5.4033-5.3566-8.2478-15.798-10.973-25.059-11.355z"/>
    <path d="m484.46 627.72c6.0743 13.121 10.838 27.074 19.644 38.721 9.4029 7.5821 15.333-9.2686 5.8289-12.938-4.2374-9.9286-7.1829-24.077-19.726-26.192-1.9213-0.20202-3.8679-0.015-5.7472 0.40847zm0.67514 0.84174h12.188l18.509 37.931-12.1-0.0789-18.597-37.852z"/>
    <path d="m467.84 628h-30.662c20.428-0.88438 40.878-0.22771 61.315-0.42087-10.197 0.87811-20.438 0.21068-30.653 0.42087z"/>
   </g>
  </g>
 </g>
</svg>
